<svg width="486" height="411" viewBox="0 0 486 411" fill="none" xmlns="http://www.w3.org/2000/svg">
<path d="M124.545 525.957C427.998 -116.673 -149.49 83.6139 -458.345 128.334" stroke="black"/>
<ellipse cx="-49.3878" cy="64.5647" rx="51.1819" ry="57.3722" transform="rotate(178.708 -49.3878 64.5647)" fill="url(#paint0_linear_102_3)"/>
<ellipse cx="-39.0639" cy="64.1173" rx="51.1819" ry="57.3722" transform="rotate(178.708 -39.0639 64.1173)" fill="url(#paint1_linear_102_3)"/>
<ellipse cx="-28.7352" cy="63.8097" rx="51.1819" ry="57.3722" transform="rotate(178.708 -28.7352 63.8097)" fill="url(#paint2_linear_102_3)"/>
<ellipse cx="-18.4035" cy="63.6528" rx="51.1819" ry="57.3722" transform="rotate(178.708 -18.4035 63.6528)" fill="url(#paint3_linear_102_3)"/>
<ellipse cx="-8.07003" cy="63.6593" rx="51.1819" ry="57.3722" transform="rotate(178.708 -8.07003 63.6593)" fill="url(#paint4_linear_102_3)"/>
<ellipse cx="2.26285" cy="63.8423" rx="51.1819" ry="57.3722" transform="rotate(178.708 2.26285 63.8423)" fill="url(#paint5_linear_102_3)"/>
<ellipse cx="12.5922" cy="64.2169" rx="51.1819" ry="57.3722" transform="rotate(178.708 12.5922 64.2169)" fill="url(#paint6_linear_102_3)"/>
<ellipse cx="22.9148" cy="64.7993" rx="51.1819" ry="57.3722" transform="rotate(178.708 22.9148 64.7993)" fill="url(#paint7_linear_102_3)"/>
<ellipse cx="33.226" cy="65.6089" rx="51.1819" ry="57.3722" transform="rotate(178.708 33.226 65.6089)" fill="url(#paint8_linear_102_3)"/>
<ellipse cx="43.5205" cy="66.6656" rx="51.1819" ry="57.3722" transform="rotate(178.708 43.5205 66.6656)" fill="url(#paint9_linear_102_3)"/>
<ellipse cx="53.791" cy="67.9922" rx="51.1819" ry="57.3722" transform="rotate(178.708 53.791 67.9922)" fill="url(#paint10_linear_102_3)"/>
<ellipse cx="64.0285" cy="69.6149" rx="51.1819" ry="57.3722" transform="rotate(178.708 64.0285 69.6149)" fill="url(#paint11_linear_102_3)"/>
<ellipse cx="74.2226" cy="71.5623" rx="51.1819" ry="57.3722" transform="rotate(178.708 74.2226 71.5623)" fill="url(#paint12_linear_102_3)"/>
<ellipse cx="84.3583" cy="73.8666" rx="51.1819" ry="57.3722" transform="rotate(178.708 84.3583 73.8666)" fill="url(#paint13_linear_102_3)"/>
<ellipse cx="94.4181" cy="76.5629" rx="51.1819" ry="57.3722" transform="rotate(178.708 94.4181 76.5629)" fill="url(#paint14_linear_102_3)"/>
<ellipse cx="104.38" cy="79.6906" rx="51.1819" ry="57.3722" transform="rotate(178.708 104.38 79.6906)" fill="url(#paint15_linear_102_3)"/>
<ellipse cx="114.215" cy="83.2926" rx="51.1819" ry="57.3722" transform="rotate(178.708 114.215 83.2926)" fill="url(#paint16_linear_102_3)"/>
<ellipse cx="123.889" cy="87.4143" rx="51.1819" ry="57.3722" transform="rotate(178.708 123.889 87.4143)" fill="url(#paint17_linear_102_3)"/>
<ellipse cx="133.357" cy="92.1038" rx="51.1819" ry="57.3722" transform="rotate(178.708 133.357 92.1038)" fill="url(#paint18_linear_102_3)"/>
<ellipse cx="142.566" cy="97.4072" rx="51.1819" ry="57.3722" transform="rotate(178.708 142.566 97.4072)" fill="url(#paint19_linear_102_3)"/>
<ellipse cx="151.452" cy="103.369" rx="51.1819" ry="57.3722" transform="rotate(178.708 151.452 103.369)" fill="url(#paint20_linear_102_3)"/>
<ellipse cx="159.941" cy="110.022" rx="51.1819" ry="57.3722" transform="rotate(178.708 159.941 110.022)" fill="url(#paint21_linear_102_3)"/>
<ellipse cx="167.949" cy="117.389" rx="51.1819" ry="57.3722" transform="rotate(178.708 167.949 117.389)" fill="url(#paint22_linear_102_3)"/>
<ellipse cx="175.392" cy="125.468" rx="51.1819" ry="57.3722" transform="rotate(178.708 175.392 125.468)" fill="url(#paint23_linear_102_3)"/>
<ellipse cx="182.186" cy="134.234" rx="51.1819" ry="57.3722" transform="rotate(178.708 182.186 134.234)" fill="url(#paint24_linear_102_3)"/>
<ellipse cx="188.263" cy="143.637" rx="51.1819" ry="57.3722" transform="rotate(178.708 188.263 143.637)" fill="url(#paint25_linear_102_3)"/>
<ellipse cx="193.575" cy="153.601" rx="51.1819" ry="57.3722" transform="rotate(178.708 193.575 153.601)" fill="url(#paint26_linear_102_3)"/>
<ellipse cx="198.097" cy="164.038" rx="51.1819" ry="57.3722" transform="rotate(178.708 198.097 164.038)" fill="url(#paint27_linear_102_3)"/>
<ellipse cx="201.834" cy="174.853" rx="51.1819" ry="57.3722" transform="rotate(178.708 201.834 174.853)" fill="url(#paint28_linear_102_3)"/>
<ellipse cx="204.81" cy="185.954" rx="51.1819" ry="57.3722" transform="rotate(178.708 204.81 185.954)" fill="url(#paint29_linear_102_3)"/>
<ellipse cx="207.07" cy="197.261" rx="51.1819" ry="57.3722" transform="rotate(178.708 207.07 197.261)" fill="url(#paint30_linear_102_3)"/>
<ellipse cx="208.664" cy="208.704" rx="51.1819" ry="57.3722" transform="rotate(178.708 208.664 208.704)" fill="url(#paint31_linear_102_3)"/>
<ellipse cx="209.648" cy="220.23" rx="51.1819" ry="57.3722" transform="rotate(178.708 209.648 220.23)" fill="url(#paint32_linear_102_3)"/>
<ellipse cx="210.08" cy="231.796" rx="51.1819" ry="57.3722" transform="rotate(178.708 210.08 231.796)" fill="url(#paint33_linear_102_3)"/>
<ellipse cx="210.012" cy="243.369" rx="51.1819" ry="57.3722" transform="rotate(178.708 210.012 243.369)" fill="url(#paint34_linear_102_3)"/>
<ellipse cx="209.494" cy="254.924" rx="51.1819" ry="57.3722" transform="rotate(178.708 209.494 254.924)" fill="url(#paint35_linear_102_3)"/>
<ellipse cx="208.571" cy="266.447" rx="51.1819" ry="57.3722" transform="rotate(178.708 208.571 266.447)" fill="url(#paint36_linear_102_3)"/>
<ellipse cx="207.283" cy="277.924" rx="51.1819" ry="57.3722" transform="rotate(178.708 207.283 277.924)" fill="url(#paint37_linear_102_3)"/>
<ellipse cx="205.664" cy="289.347" rx="51.1819" ry="57.3722" transform="rotate(178.708 205.664 289.347)" fill="url(#paint38_linear_102_3)"/>
<ellipse cx="203.748" cy="300.71" rx="51.1819" ry="57.3722" transform="rotate(178.708 203.748 300.71)" fill="url(#paint39_linear_102_3)"/>
<ellipse cx="201.562" cy="312.011" rx="51.1819" ry="57.3722" transform="rotate(178.708 201.562 312.011)" fill="url(#paint40_linear_102_3)"/>
<ellipse cx="199.128" cy="323.248" rx="51.1819" ry="57.3722" transform="rotate(178.708 199.128 323.248)" fill="url(#paint41_linear_102_3)"/>
<ellipse cx="196.471" cy="334.42" rx="51.1819" ry="57.3722" transform="rotate(178.708 196.471 334.42)" fill="url(#paint42_linear_102_3)"/>
<ellipse cx="193.608" cy="345.527" rx="51.1819" ry="57.3722" transform="rotate(178.708 193.608 345.527)" fill="url(#paint43_linear_102_3)"/>
<ellipse cx="190.556" cy="356.571" rx="51.1819" ry="57.3722" transform="rotate(178.708 190.556 356.571)" fill="url(#paint44_linear_102_3)"/>
<ellipse cx="187.33" cy="367.552" rx="51.1819" ry="57.3722" transform="rotate(178.708 187.33 367.552)" fill="url(#paint45_linear_102_3)"/>
<ellipse cx="183.943" cy="378.47" rx="51.1819" ry="57.3722" transform="rotate(178.708 183.943 378.47)" fill="url(#paint46_linear_102_3)"/>
<ellipse cx="180.407" cy="389.33" rx="51.1819" ry="57.3722" transform="rotate(178.708 180.407 389.33)" fill="url(#paint47_linear_102_3)"/>
<ellipse cx="176.734" cy="400.131" rx="51.1819" ry="57.3722" transform="rotate(178.708 176.734 400.131)" fill="url(#paint48_linear_102_3)"/>
<ellipse cx="172.932" cy="410.876" rx="51.1819" ry="57.3722" transform="rotate(178.708 172.932 410.876)" fill="url(#paint49_linear_102_3)"/>
<ellipse cx="169.01" cy="421.567" rx="51.1819" ry="57.3722" transform="rotate(178.708 169.01 421.567)" fill="url(#paint50_linear_102_3)"/>
<ellipse cx="164.976" cy="432.204" rx="51.1819" ry="57.3722" transform="rotate(178.708 164.976 432.204)" fill="url(#paint51_linear_102_3)"/>
<ellipse cx="160.837" cy="442.79" rx="51.1819" ry="57.3722" transform="rotate(178.708 160.837 442.79)" fill="url(#paint52_linear_102_3)"/>
<ellipse cx="156.599" cy="453.327" rx="51.1819" ry="57.3722" transform="rotate(178.708 156.599 453.327)" fill="url(#paint53_linear_102_3)"/>
<ellipse cx="152.268" cy="463.816" rx="51.1819" ry="57.3722" transform="rotate(178.708 152.268 463.816)" fill="url(#paint54_linear_102_3)"/>
<ellipse cx="-49.3878" cy="64.5647" rx="51.1819" ry="57.3722" transform="rotate(178.708 -49.3878 64.5647)" fill="url(#paint55_linear_102_3)"/>
<ellipse cx="-39.0639" cy="64.1173" rx="51.1819" ry="57.3722" transform="rotate(178.708 -39.0639 64.1173)" fill="url(#paint56_linear_102_3)"/>
<ellipse cx="-28.7352" cy="63.8097" rx="51.1819" ry="57.3722" transform="rotate(178.708 -28.7352 63.8097)" fill="url(#paint57_linear_102_3)"/>
<ellipse cx="-18.4035" cy="63.6528" rx="51.1819" ry="57.3722" transform="rotate(178.708 -18.4035 63.6528)" fill="url(#paint58_linear_102_3)"/>
<ellipse cx="-8.07003" cy="63.6593" rx="51.1819" ry="57.3722" transform="rotate(178.708 -8.07003 63.6593)" fill="url(#paint59_linear_102_3)"/>
<ellipse cx="2.26285" cy="63.8423" rx="51.1819" ry="57.3722" transform="rotate(178.708 2.26285 63.8423)" fill="url(#paint60_linear_102_3)"/>
<ellipse cx="12.5922" cy="64.2169" rx="51.1819" ry="57.3722" transform="rotate(178.708 12.5922 64.2169)" fill="url(#paint61_linear_102_3)"/>
<ellipse cx="22.9148" cy="64.7993" rx="51.1819" ry="57.3722" transform="rotate(178.708 22.9148 64.7993)" fill="url(#paint62_linear_102_3)"/>
<ellipse cx="33.226" cy="65.6089" rx="51.1819" ry="57.3722" transform="rotate(178.708 33.226 65.6089)" fill="url(#paint63_linear_102_3)"/>
<ellipse cx="43.5205" cy="66.6656" rx="51.1819" ry="57.3722" transform="rotate(178.708 43.5205 66.6656)" fill="url(#paint64_linear_102_3)"/>
<ellipse cx="53.791" cy="67.9922" rx="51.1819" ry="57.3722" transform="rotate(178.708 53.791 67.9922)" fill="url(#paint65_linear_102_3)"/>
<ellipse cx="64.0285" cy="69.6149" rx="51.1819" ry="57.3722" transform="rotate(178.708 64.0285 69.6149)" fill="url(#paint66_linear_102_3)"/>
<ellipse cx="74.2226" cy="71.5623" rx="51.1819" ry="57.3722" transform="rotate(178.708 74.2226 71.5623)" fill="url(#paint67_linear_102_3)"/>
<ellipse cx="84.3583" cy="73.8666" rx="51.1819" ry="57.3722" transform="rotate(178.708 84.3583 73.8666)" fill="url(#paint68_linear_102_3)"/>
<ellipse cx="94.4181" cy="76.5629" rx="51.1819" ry="57.3722" transform="rotate(178.708 94.4181 76.5629)" fill="url(#paint69_linear_102_3)"/>
<ellipse cx="104.38" cy="79.6906" rx="51.1819" ry="57.3722" transform="rotate(178.708 104.38 79.6906)" fill="url(#paint70_linear_102_3)"/>
<ellipse cx="114.215" cy="83.2926" rx="51.1819" ry="57.3722" transform="rotate(178.708 114.215 83.2926)" fill="url(#paint71_linear_102_3)"/>
<ellipse cx="123.889" cy="87.4143" rx="51.1819" ry="57.3722" transform="rotate(178.708 123.889 87.4143)" fill="url(#paint72_linear_102_3)"/>
<ellipse cx="133.357" cy="92.1038" rx="51.1819" ry="57.3722" transform="rotate(178.708 133.357 92.1038)" fill="url(#paint73_linear_102_3)"/>
<ellipse cx="142.566" cy="97.4072" rx="51.1819" ry="57.3722" transform="rotate(178.708 142.566 97.4072)" fill="url(#paint74_linear_102_3)"/>
<ellipse cx="151.452" cy="103.369" rx="51.1819" ry="57.3722" transform="rotate(178.708 151.452 103.369)" fill="url(#paint75_linear_102_3)"/>
<ellipse cx="159.941" cy="110.022" rx="51.1819" ry="57.3722" transform="rotate(178.708 159.941 110.022)" fill="url(#paint76_linear_102_3)"/>
<ellipse cx="167.949" cy="117.389" rx="51.1819" ry="57.3722" transform="rotate(178.708 167.949 117.389)" fill="url(#paint77_linear_102_3)"/>
<ellipse cx="175.392" cy="125.468" rx="51.1819" ry="57.3722" transform="rotate(178.708 175.392 125.468)" fill="url(#paint78_linear_102_3)"/>
<ellipse cx="182.186" cy="134.234" rx="51.1819" ry="57.3722" transform="rotate(178.708 182.186 134.234)" fill="url(#paint79_linear_102_3)"/>
<ellipse cx="188.263" cy="143.637" rx="51.1819" ry="57.3722" transform="rotate(178.708 188.263 143.637)" fill="url(#paint80_linear_102_3)"/>
<ellipse cx="193.575" cy="153.601" rx="51.1819" ry="57.3722" transform="rotate(178.708 193.575 153.601)" fill="url(#paint81_linear_102_3)"/>
<ellipse cx="198.097" cy="164.038" rx="51.1819" ry="57.3722" transform="rotate(178.708 198.097 164.038)" fill="url(#paint82_linear_102_3)"/>
<ellipse cx="201.834" cy="174.853" rx="51.1819" ry="57.3722" transform="rotate(178.708 201.834 174.853)" fill="url(#paint83_linear_102_3)"/>
<ellipse cx="204.81" cy="185.954" rx="51.1819" ry="57.3722" transform="rotate(178.708 204.81 185.954)" fill="url(#paint84_linear_102_3)"/>
<ellipse cx="207.07" cy="197.261" rx="51.1819" ry="57.3722" transform="rotate(178.708 207.07 197.261)" fill="url(#paint85_linear_102_3)"/>
<ellipse cx="208.664" cy="208.704" rx="51.1819" ry="57.3722" transform="rotate(178.708 208.664 208.704)" fill="url(#paint86_linear_102_3)"/>
<ellipse cx="209.648" cy="220.23" rx="51.1819" ry="57.3722" transform="rotate(178.708 209.648 220.23)" fill="url(#paint87_linear_102_3)"/>
<ellipse cx="210.08" cy="231.796" rx="51.1819" ry="57.3722" transform="rotate(178.708 210.08 231.796)" fill="url(#paint88_linear_102_3)"/>
<ellipse cx="210.012" cy="243.369" rx="51.1819" ry="57.3722" transform="rotate(178.708 210.012 243.369)" fill="url(#paint89_linear_102_3)"/>
<ellipse cx="209.494" cy="254.924" rx="51.1819" ry="57.3722" transform="rotate(178.708 209.494 254.924)" fill="url(#paint90_linear_102_3)"/>
<ellipse cx="208.571" cy="266.447" rx="51.1819" ry="57.3722" transform="rotate(178.708 208.571 266.447)" fill="url(#paint91_linear_102_3)"/>
<ellipse cx="207.283" cy="277.924" rx="51.1819" ry="57.3722" transform="rotate(178.708 207.283 277.924)" fill="url(#paint92_linear_102_3)"/>
<ellipse cx="205.664" cy="289.347" rx="51.1819" ry="57.3722" transform="rotate(178.708 205.664 289.347)" fill="url(#paint93_linear_102_3)"/>
<ellipse cx="203.748" cy="300.71" rx="51.1819" ry="57.3722" transform="rotate(178.708 203.748 300.71)" fill="url(#paint94_linear_102_3)"/>
<ellipse cx="201.562" cy="312.011" rx="51.1819" ry="57.3722" transform="rotate(178.708 201.562 312.011)" fill="url(#paint95_linear_102_3)"/>
<ellipse cx="199.128" cy="323.248" rx="51.1819" ry="57.3722" transform="rotate(178.708 199.128 323.248)" fill="url(#paint96_linear_102_3)"/>
<ellipse cx="196.471" cy="334.42" rx="51.1819" ry="57.3722" transform="rotate(178.708 196.471 334.42)" fill="url(#paint97_linear_102_3)"/>
<ellipse cx="193.608" cy="345.527" rx="51.1819" ry="57.3722" transform="rotate(178.708 193.608 345.527)" fill="url(#paint98_linear_102_3)"/>
<ellipse cx="190.556" cy="356.571" rx="51.1819" ry="57.3722" transform="rotate(178.708 190.556 356.571)" fill="url(#paint99_linear_102_3)"/>
<ellipse cx="187.33" cy="367.552" rx="51.1819" ry="57.3722" transform="rotate(178.708 187.33 367.552)" fill="url(#paint100_linear_102_3)"/>
<ellipse cx="183.943" cy="378.47" rx="51.1819" ry="57.3722" transform="rotate(178.708 183.943 378.47)" fill="url(#paint101_linear_102_3)"/>
<ellipse cx="180.407" cy="389.33" rx="51.1819" ry="57.3722" transform="rotate(178.708 180.407 389.33)" fill="url(#paint102_linear_102_3)"/>
<ellipse cx="176.734" cy="400.131" rx="51.1819" ry="57.3722" transform="rotate(178.708 176.734 400.131)" fill="url(#paint103_linear_102_3)"/>
<ellipse cx="172.932" cy="410.876" rx="51.1819" ry="57.3722" transform="rotate(178.708 172.932 410.876)" fill="url(#paint104_linear_102_3)"/>
<ellipse cx="169.01" cy="421.567" rx="51.1819" ry="57.3722" transform="rotate(178.708 169.01 421.567)" fill="url(#paint105_linear_102_3)"/>
<ellipse cx="164.976" cy="432.204" rx="51.1819" ry="57.3722" transform="rotate(178.708 164.976 432.204)" fill="url(#paint106_linear_102_3)"/>
<ellipse cx="160.837" cy="442.79" rx="51.1819" ry="57.3722" transform="rotate(178.708 160.837 442.79)" fill="url(#paint107_linear_102_3)"/>
<ellipse cx="156.599" cy="453.327" rx="51.1819" ry="57.3722" transform="rotate(178.708 156.599 453.327)" fill="url(#paint108_linear_102_3)"/>
<ellipse cx="152.268" cy="463.816" rx="51.1819" ry="57.3722" transform="rotate(178.708 152.268 463.816)" fill="url(#paint109_linear_102_3)"/>
<circle cx="245.5" cy="433.5" r="240.5" fill="url(#paint110_linear_102_3)"/>
<defs>
<linearGradient id="paint0_linear_102_3" x1="-49.3878" y1="7.19245" x2="-49.3878" y2="121.937" gradientUnits="userSpaceOnUse">
<stop stop-color="#D9D9D9"/>
<stop offset="1" stop-color="#D9D9D9" stop-opacity="0"/>
</linearGradient>
<linearGradient id="paint1_linear_102_3" x1="-39.0639" y1="6.74506" x2="-39.0639" y2="121.49" gradientUnits="userSpaceOnUse">
<stop stop-color="#D9D9D9"/>
<stop offset="1" stop-color="#D9D9D9" stop-opacity="0"/>
</linearGradient>
<linearGradient id="paint2_linear_102_3" x1="-28.7352" y1="6.43745" x2="-28.7352" y2="121.182" gradientUnits="userSpaceOnUse">
<stop stop-color="#D9D9D9"/>
<stop offset="1" stop-color="#D9D9D9" stop-opacity="0"/>
</linearGradient>
<linearGradient id="paint3_linear_102_3" x1="-18.4035" y1="6.28059" x2="-18.4035" y2="121.025" gradientUnits="userSpaceOnUse">
<stop stop-color="#D9D9D9"/>
<stop offset="1" stop-color="#D9D9D9" stop-opacity="0"/>
</linearGradient>
<linearGradient id="paint4_linear_102_3" x1="-8.07003" y1="6.28706" x2="-8.07003" y2="121.032" gradientUnits="userSpaceOnUse">
<stop stop-color="#D9D9D9"/>
<stop offset="1" stop-color="#D9D9D9" stop-opacity="0"/>
</linearGradient>
<linearGradient id="paint5_linear_102_3" x1="2.26285" y1="6.47004" x2="2.26285" y2="121.215" gradientUnits="userSpaceOnUse">
<stop stop-color="#D9D9D9"/>
<stop offset="1" stop-color="#D9D9D9" stop-opacity="0"/>
</linearGradient>
<linearGradient id="paint6_linear_102_3" x1="12.5922" y1="6.84467" x2="12.5922" y2="121.589" gradientUnits="userSpaceOnUse">
<stop stop-color="#D9D9D9"/>
<stop offset="1" stop-color="#D9D9D9" stop-opacity="0"/>
</linearGradient>
<linearGradient id="paint7_linear_102_3" x1="22.9148" y1="7.42707" x2="22.9148" y2="122.172" gradientUnits="userSpaceOnUse">
<stop stop-color="#D9D9D9"/>
<stop offset="1" stop-color="#D9D9D9" stop-opacity="0"/>
</linearGradient>
<linearGradient id="paint8_linear_102_3" x1="33.226" y1="8.23664" x2="33.226" y2="122.981" gradientUnits="userSpaceOnUse">
<stop stop-color="#D9D9D9"/>
<stop offset="1" stop-color="#D9D9D9" stop-opacity="0"/>
</linearGradient>
<linearGradient id="paint9_linear_102_3" x1="43.5205" y1="9.2934" x2="43.5205" y2="124.038" gradientUnits="userSpaceOnUse">
<stop stop-color="#D9D9D9"/>
<stop offset="1" stop-color="#D9D9D9" stop-opacity="0"/>
</linearGradient>
<linearGradient id="paint10_linear_102_3" x1="53.7911" y1="10.6199" x2="53.7911" y2="125.364" gradientUnits="userSpaceOnUse">
<stop stop-color="#D9D9D9"/>
<stop offset="1" stop-color="#D9D9D9" stop-opacity="0"/>
</linearGradient>
<linearGradient id="paint11_linear_102_3" x1="64.0285" y1="12.2426" x2="64.0285" y2="126.987" gradientUnits="userSpaceOnUse">
<stop stop-color="#D9D9D9"/>
<stop offset="1" stop-color="#D9D9D9" stop-opacity="0"/>
</linearGradient>
<linearGradient id="paint12_linear_102_3" x1="74.2226" y1="14.19" x2="74.2226" y2="128.935" gradientUnits="userSpaceOnUse">
<stop stop-color="#D9D9D9"/>
<stop offset="1" stop-color="#D9D9D9" stop-opacity="0"/>
</linearGradient>
<linearGradient id="paint13_linear_102_3" x1="84.3583" y1="16.4943" x2="84.3583" y2="131.239" gradientUnits="userSpaceOnUse">
<stop stop-color="#D9D9D9"/>
<stop offset="1" stop-color="#D9D9D9" stop-opacity="0"/>
</linearGradient>
<linearGradient id="paint14_linear_102_3" x1="94.4181" y1="19.1906" x2="94.4181" y2="133.935" gradientUnits="userSpaceOnUse">
<stop stop-color="#D9D9D9"/>
<stop offset="1" stop-color="#D9D9D9" stop-opacity="0"/>
</linearGradient>
<linearGradient id="paint15_linear_102_3" x1="104.38" y1="22.3183" x2="104.38" y2="137.063" gradientUnits="userSpaceOnUse">
<stop stop-color="#D9D9D9"/>
<stop offset="1" stop-color="#D9D9D9" stop-opacity="0"/>
</linearGradient>
<linearGradient id="paint16_linear_102_3" x1="114.215" y1="25.9204" x2="114.215" y2="140.665" gradientUnits="userSpaceOnUse">
<stop stop-color="#D9D9D9"/>
<stop offset="1" stop-color="#D9D9D9" stop-opacity="0"/>
</linearGradient>
<linearGradient id="paint17_linear_102_3" x1="123.889" y1="30.0421" x2="123.889" y2="144.787" gradientUnits="userSpaceOnUse">
<stop stop-color="#D9D9D9"/>
<stop offset="1" stop-color="#D9D9D9" stop-opacity="0"/>
</linearGradient>
<linearGradient id="paint18_linear_102_3" x1="133.357" y1="34.7315" x2="133.357" y2="149.476" gradientUnits="userSpaceOnUse">
<stop stop-color="#D9D9D9"/>
<stop offset="1" stop-color="#D9D9D9" stop-opacity="0"/>
</linearGradient>
<linearGradient id="paint19_linear_102_3" x1="142.566" y1="40.035" x2="142.566" y2="154.779" gradientUnits="userSpaceOnUse">
<stop stop-color="#D9D9D9"/>
<stop offset="1" stop-color="#D9D9D9" stop-opacity="0"/>
</linearGradient>
<linearGradient id="paint20_linear_102_3" x1="151.452" y1="45.9963" x2="151.452" y2="160.741" gradientUnits="userSpaceOnUse">
<stop stop-color="#D9D9D9"/>
<stop offset="1" stop-color="#D9D9D9" stop-opacity="0"/>
</linearGradient>
<linearGradient id="paint21_linear_102_3" x1="159.941" y1="52.6499" x2="159.941" y2="167.394" gradientUnits="userSpaceOnUse">
<stop stop-color="#D9D9D9"/>
<stop offset="1" stop-color="#D9D9D9" stop-opacity="0"/>
</linearGradient>
<linearGradient id="paint22_linear_102_3" x1="167.949" y1="60.0164" x2="167.949" y2="174.761" gradientUnits="userSpaceOnUse">
<stop stop-color="#D9D9D9"/>
<stop offset="1" stop-color="#D9D9D9" stop-opacity="0"/>
</linearGradient>
<linearGradient id="paint23_linear_102_3" x1="175.392" y1="68.0957" x2="175.392" y2="182.84" gradientUnits="userSpaceOnUse">
<stop stop-color="#D9D9D9"/>
<stop offset="1" stop-color="#D9D9D9" stop-opacity="0"/>
</linearGradient>
<linearGradient id="paint24_linear_102_3" x1="182.186" y1="76.8621" x2="182.186" y2="191.607" gradientUnits="userSpaceOnUse">
<stop stop-color="#D9D9D9"/>
<stop offset="1" stop-color="#D9D9D9" stop-opacity="0"/>
</linearGradient>
<linearGradient id="paint25_linear_102_3" x1="188.263" y1="86.2648" x2="188.263" y2="201.009" gradientUnits="userSpaceOnUse">
<stop stop-color="#D9D9D9"/>
<stop offset="1" stop-color="#D9D9D9" stop-opacity="0"/>
</linearGradient>
<linearGradient id="paint26_linear_102_3" x1="193.575" y1="96.2292" x2="193.575" y2="210.974" gradientUnits="userSpaceOnUse">
<stop stop-color="#D9D9D9"/>
<stop offset="1" stop-color="#D9D9D9" stop-opacity="0"/>
</linearGradient>
<linearGradient id="paint27_linear_102_3" x1="198.097" y1="106.666" x2="198.097" y2="221.41" gradientUnits="userSpaceOnUse">
<stop stop-color="#D9D9D9"/>
<stop offset="1" stop-color="#D9D9D9" stop-opacity="0"/>
</linearGradient>
<linearGradient id="paint28_linear_102_3" x1="201.834" y1="117.48" x2="201.834" y2="232.225" gradientUnits="userSpaceOnUse">
<stop stop-color="#D9D9D9"/>
<stop offset="1" stop-color="#D9D9D9" stop-opacity="0"/>
</linearGradient>
<linearGradient id="paint29_linear_102_3" x1="204.81" y1="128.582" x2="204.81" y2="243.326" gradientUnits="userSpaceOnUse">
<stop stop-color="#D9D9D9"/>
<stop offset="1" stop-color="#D9D9D9" stop-opacity="0"/>
</linearGradient>
<linearGradient id="paint30_linear_102_3" x1="207.07" y1="139.888" x2="207.07" y2="254.633" gradientUnits="userSpaceOnUse">
<stop stop-color="#D9D9D9"/>
<stop offset="1" stop-color="#D9D9D9" stop-opacity="0"/>
</linearGradient>
<linearGradient id="paint31_linear_102_3" x1="208.664" y1="151.332" x2="208.664" y2="266.077" gradientUnits="userSpaceOnUse">
<stop stop-color="#D9D9D9"/>
<stop offset="1" stop-color="#D9D9D9" stop-opacity="0"/>
</linearGradient>
<linearGradient id="paint32_linear_102_3" x1="209.648" y1="162.858" x2="209.648" y2="277.603" gradientUnits="userSpaceOnUse">
<stop stop-color="#D9D9D9"/>
<stop offset="1" stop-color="#D9D9D9" stop-opacity="0"/>
</linearGradient>
<linearGradient id="paint33_linear_102_3" x1="210.08" y1="174.423" x2="210.08" y2="289.168" gradientUnits="userSpaceOnUse">
<stop stop-color="#D9D9D9"/>
<stop offset="1" stop-color="#D9D9D9" stop-opacity="0"/>
</linearGradient>
<linearGradient id="paint34_linear_102_3" x1="210.012" y1="185.996" x2="210.012" y2="300.741" gradientUnits="userSpaceOnUse">
<stop stop-color="#D9D9D9"/>
<stop offset="1" stop-color="#D9D9D9" stop-opacity="0"/>
</linearGradient>
<linearGradient id="paint35_linear_102_3" x1="209.494" y1="197.552" x2="209.494" y2="312.297" gradientUnits="userSpaceOnUse">
<stop stop-color="#D9D9D9"/>
<stop offset="1" stop-color="#D9D9D9" stop-opacity="0"/>
</linearGradient>
<linearGradient id="paint36_linear_102_3" x1="208.571" y1="209.075" x2="208.571" y2="323.819" gradientUnits="userSpaceOnUse">
<stop stop-color="#D9D9D9"/>
<stop offset="1" stop-color="#D9D9D9" stop-opacity="0"/>
</linearGradient>
<linearGradient id="paint37_linear_102_3" x1="207.283" y1="220.551" x2="207.283" y2="335.296" gradientUnits="userSpaceOnUse">
<stop stop-color="#D9D9D9"/>
<stop offset="1" stop-color="#D9D9D9" stop-opacity="0"/>
</linearGradient>
<linearGradient id="paint38_linear_102_3" x1="205.664" y1="231.974" x2="205.664" y2="346.719" gradientUnits="userSpaceOnUse">
<stop stop-color="#D9D9D9"/>
<stop offset="1" stop-color="#D9D9D9" stop-opacity="0"/>
</linearGradient>
<linearGradient id="paint39_linear_102_3" x1="203.748" y1="243.338" x2="203.748" y2="358.082" gradientUnits="userSpaceOnUse">
<stop stop-color="#D9D9D9"/>
<stop offset="1" stop-color="#D9D9D9" stop-opacity="0"/>
</linearGradient>
<linearGradient id="paint40_linear_102_3" x1="201.562" y1="254.639" x2="201.562" y2="369.383" gradientUnits="userSpaceOnUse">
<stop stop-color="#D9D9D9"/>
<stop offset="1" stop-color="#D9D9D9" stop-opacity="0"/>
</linearGradient>
<linearGradient id="paint41_linear_102_3" x1="199.128" y1="265.876" x2="199.128" y2="380.62" gradientUnits="userSpaceOnUse">
<stop stop-color="#D9D9D9"/>
<stop offset="1" stop-color="#D9D9D9" stop-opacity="0"/>
</linearGradient>
<linearGradient id="paint42_linear_102_3" x1="196.471" y1="277.048" x2="196.471" y2="391.793" gradientUnits="userSpaceOnUse">
<stop stop-color="#D9D9D9"/>
<stop offset="1" stop-color="#D9D9D9" stop-opacity="0"/>
</linearGradient>
<linearGradient id="paint43_linear_102_3" x1="193.608" y1="288.155" x2="193.608" y2="402.9" gradientUnits="userSpaceOnUse">
<stop stop-color="#D9D9D9"/>
<stop offset="1" stop-color="#D9D9D9" stop-opacity="0"/>
</linearGradient>
<linearGradient id="paint44_linear_102_3" x1="190.556" y1="299.199" x2="190.556" y2="413.943" gradientUnits="userSpaceOnUse">
<stop stop-color="#D9D9D9"/>
<stop offset="1" stop-color="#D9D9D9" stop-opacity="0"/>
</linearGradient>
<linearGradient id="paint45_linear_102_3" x1="187.33" y1="310.179" x2="187.33" y2="424.924" gradientUnits="userSpaceOnUse">
<stop stop-color="#D9D9D9"/>
<stop offset="1" stop-color="#D9D9D9" stop-opacity="0"/>
</linearGradient>
<linearGradient id="paint46_linear_102_3" x1="183.943" y1="321.098" x2="183.943" y2="435.843" gradientUnits="userSpaceOnUse">
<stop stop-color="#D9D9D9"/>
<stop offset="1" stop-color="#D9D9D9" stop-opacity="0"/>
</linearGradient>
<linearGradient id="paint47_linear_102_3" x1="180.407" y1="331.958" x2="180.407" y2="446.702" gradientUnits="userSpaceOnUse">
<stop stop-color="#D9D9D9"/>
<stop offset="1" stop-color="#D9D9D9" stop-opacity="0"/>
</linearGradient>
<linearGradient id="paint48_linear_102_3" x1="176.734" y1="342.759" x2="176.734" y2="457.504" gradientUnits="userSpaceOnUse">
<stop stop-color="#D9D9D9"/>
<stop offset="1" stop-color="#D9D9D9" stop-opacity="0"/>
</linearGradient>
<linearGradient id="paint49_linear_102_3" x1="172.932" y1="353.504" x2="172.932" y2="468.248" gradientUnits="userSpaceOnUse">
<stop stop-color="#D9D9D9"/>
<stop offset="1" stop-color="#D9D9D9" stop-opacity="0"/>
</linearGradient>
<linearGradient id="paint50_linear_102_3" x1="169.01" y1="364.194" x2="169.01" y2="478.939" gradientUnits="userSpaceOnUse">
<stop stop-color="#D9D9D9"/>
<stop offset="1" stop-color="#D9D9D9" stop-opacity="0"/>
</linearGradient>
<linearGradient id="paint51_linear_102_3" x1="164.976" y1="374.832" x2="164.976" y2="489.576" gradientUnits="userSpaceOnUse">
<stop stop-color="#D9D9D9"/>
<stop offset="1" stop-color="#D9D9D9" stop-opacity="0"/>
</linearGradient>
<linearGradient id="paint52_linear_102_3" x1="160.837" y1="385.418" x2="160.837" y2="500.162" gradientUnits="userSpaceOnUse">
<stop stop-color="#D9D9D9"/>
<stop offset="1" stop-color="#D9D9D9" stop-opacity="0"/>
</linearGradient>
<linearGradient id="paint53_linear_102_3" x1="156.599" y1="395.954" x2="156.599" y2="510.699" gradientUnits="userSpaceOnUse">
<stop stop-color="#D9D9D9"/>
<stop offset="1" stop-color="#D9D9D9" stop-opacity="0"/>
</linearGradient>
<linearGradient id="paint54_linear_102_3" x1="152.268" y1="406.443" x2="152.268" y2="521.188" gradientUnits="userSpaceOnUse">
<stop stop-color="#D9D9D9"/>
<stop offset="1" stop-color="#D9D9D9" stop-opacity="0"/>
</linearGradient>
<linearGradient id="paint55_linear_102_3" x1="-49.3878" y1="7.19245" x2="-49.3878" y2="121.937" gradientUnits="userSpaceOnUse">
<stop stop-color="#D9D9D9"/>
<stop offset="1" stop-color="#D9D9D9" stop-opacity="0"/>
</linearGradient>
<linearGradient id="paint56_linear_102_3" x1="-39.0639" y1="6.74506" x2="-39.0639" y2="121.49" gradientUnits="userSpaceOnUse">
<stop stop-color="#D9D9D9"/>
<stop offset="1" stop-color="#D9D9D9" stop-opacity="0"/>
</linearGradient>
<linearGradient id="paint57_linear_102_3" x1="-28.7352" y1="6.43745" x2="-28.7352" y2="121.182" gradientUnits="userSpaceOnUse">
<stop stop-color="#D9D9D9"/>
<stop offset="1" stop-color="#D9D9D9" stop-opacity="0"/>
</linearGradient>
<linearGradient id="paint58_linear_102_3" x1="-18.4035" y1="6.28059" x2="-18.4035" y2="121.025" gradientUnits="userSpaceOnUse">
<stop stop-color="#D9D9D9"/>
<stop offset="1" stop-color="#D9D9D9" stop-opacity="0"/>
</linearGradient>
<linearGradient id="paint59_linear_102_3" x1="-8.07003" y1="6.28706" x2="-8.07003" y2="121.032" gradientUnits="userSpaceOnUse">
<stop stop-color="#D9D9D9"/>
<stop offset="1" stop-color="#D9D9D9" stop-opacity="0"/>
</linearGradient>
<linearGradient id="paint60_linear_102_3" x1="2.26285" y1="6.47004" x2="2.26285" y2="121.215" gradientUnits="userSpaceOnUse">
<stop stop-color="#D9D9D9"/>
<stop offset="1" stop-color="#D9D9D9" stop-opacity="0"/>
</linearGradient>
<linearGradient id="paint61_linear_102_3" x1="12.5922" y1="6.84467" x2="12.5922" y2="121.589" gradientUnits="userSpaceOnUse">
<stop stop-color="#D9D9D9"/>
<stop offset="1" stop-color="#D9D9D9" stop-opacity="0"/>
</linearGradient>
<linearGradient id="paint62_linear_102_3" x1="22.9148" y1="7.42707" x2="22.9148" y2="122.172" gradientUnits="userSpaceOnUse">
<stop stop-color="#D9D9D9"/>
<stop offset="1" stop-color="#D9D9D9" stop-opacity="0"/>
</linearGradient>
<linearGradient id="paint63_linear_102_3" x1="33.226" y1="8.23664" x2="33.226" y2="122.981" gradientUnits="userSpaceOnUse">
<stop stop-color="#D9D9D9"/>
<stop offset="1" stop-color="#D9D9D9" stop-opacity="0"/>
</linearGradient>
<linearGradient id="paint64_linear_102_3" x1="43.5205" y1="9.2934" x2="43.5205" y2="124.038" gradientUnits="userSpaceOnUse">
<stop stop-color="#D9D9D9"/>
<stop offset="1" stop-color="#D9D9D9" stop-opacity="0"/>
</linearGradient>
<linearGradient id="paint65_linear_102_3" x1="53.7911" y1="10.6199" x2="53.7911" y2="125.364" gradientUnits="userSpaceOnUse">
<stop stop-color="#D9D9D9"/>
<stop offset="1" stop-color="#D9D9D9" stop-opacity="0"/>
</linearGradient>
<linearGradient id="paint66_linear_102_3" x1="64.0285" y1="12.2426" x2="64.0285" y2="126.987" gradientUnits="userSpaceOnUse">
<stop stop-color="#D9D9D9"/>
<stop offset="1" stop-color="#D9D9D9" stop-opacity="0"/>
</linearGradient>
<linearGradient id="paint67_linear_102_3" x1="74.2226" y1="14.19" x2="74.2226" y2="128.935" gradientUnits="userSpaceOnUse">
<stop stop-color="#D9D9D9"/>
<stop offset="1" stop-color="#D9D9D9" stop-opacity="0"/>
</linearGradient>
<linearGradient id="paint68_linear_102_3" x1="84.3583" y1="16.4943" x2="84.3583" y2="131.239" gradientUnits="userSpaceOnUse">
<stop stop-color="#D9D9D9"/>
<stop offset="1" stop-color="#D9D9D9" stop-opacity="0"/>
</linearGradient>
<linearGradient id="paint69_linear_102_3" x1="94.4181" y1="19.1906" x2="94.4181" y2="133.935" gradientUnits="userSpaceOnUse">
<stop stop-color="#D9D9D9"/>
<stop offset="1" stop-color="#D9D9D9" stop-opacity="0"/>
</linearGradient>
<linearGradient id="paint70_linear_102_3" x1="104.38" y1="22.3183" x2="104.38" y2="137.063" gradientUnits="userSpaceOnUse">
<stop stop-color="#D9D9D9"/>
<stop offset="1" stop-color="#D9D9D9" stop-opacity="0"/>
</linearGradient>
<linearGradient id="paint71_linear_102_3" x1="114.215" y1="25.9204" x2="114.215" y2="140.665" gradientUnits="userSpaceOnUse">
<stop stop-color="#D9D9D9"/>
<stop offset="1" stop-color="#D9D9D9" stop-opacity="0"/>
</linearGradient>
<linearGradient id="paint72_linear_102_3" x1="123.889" y1="30.0421" x2="123.889" y2="144.787" gradientUnits="userSpaceOnUse">
<stop stop-color="#D9D9D9"/>
<stop offset="1" stop-color="#D9D9D9" stop-opacity="0"/>
</linearGradient>
<linearGradient id="paint73_linear_102_3" x1="133.357" y1="34.7315" x2="133.357" y2="149.476" gradientUnits="userSpaceOnUse">
<stop stop-color="#D9D9D9"/>
<stop offset="1" stop-color="#D9D9D9" stop-opacity="0"/>
</linearGradient>
<linearGradient id="paint74_linear_102_3" x1="142.566" y1="40.035" x2="142.566" y2="154.779" gradientUnits="userSpaceOnUse">
<stop stop-color="#D9D9D9"/>
<stop offset="1" stop-color="#D9D9D9" stop-opacity="0"/>
</linearGradient>
<linearGradient id="paint75_linear_102_3" x1="151.452" y1="45.9963" x2="151.452" y2="160.741" gradientUnits="userSpaceOnUse">
<stop stop-color="#D9D9D9"/>
<stop offset="1" stop-color="#D9D9D9" stop-opacity="0"/>
</linearGradient>
<linearGradient id="paint76_linear_102_3" x1="159.941" y1="52.6499" x2="159.941" y2="167.394" gradientUnits="userSpaceOnUse">
<stop stop-color="#D9D9D9"/>
<stop offset="1" stop-color="#D9D9D9" stop-opacity="0"/>
</linearGradient>
<linearGradient id="paint77_linear_102_3" x1="167.949" y1="60.0164" x2="167.949" y2="174.761" gradientUnits="userSpaceOnUse">
<stop stop-color="#D9D9D9"/>
<stop offset="1" stop-color="#D9D9D9" stop-opacity="0"/>
</linearGradient>
<linearGradient id="paint78_linear_102_3" x1="175.392" y1="68.0957" x2="175.392" y2="182.84" gradientUnits="userSpaceOnUse">
<stop stop-color="#D9D9D9"/>
<stop offset="1" stop-color="#D9D9D9" stop-opacity="0"/>
</linearGradient>
<linearGradient id="paint79_linear_102_3" x1="182.186" y1="76.8621" x2="182.186" y2="191.607" gradientUnits="userSpaceOnUse">
<stop stop-color="#D9D9D9"/>
<stop offset="1" stop-color="#D9D9D9" stop-opacity="0"/>
</linearGradient>
<linearGradient id="paint80_linear_102_3" x1="188.263" y1="86.2648" x2="188.263" y2="201.009" gradientUnits="userSpaceOnUse">
<stop stop-color="#D9D9D9"/>
<stop offset="1" stop-color="#D9D9D9" stop-opacity="0"/>
</linearGradient>
<linearGradient id="paint81_linear_102_3" x1="193.575" y1="96.2292" x2="193.575" y2="210.974" gradientUnits="userSpaceOnUse">
<stop stop-color="#D9D9D9"/>
<stop offset="1" stop-color="#D9D9D9" stop-opacity="0"/>
</linearGradient>
<linearGradient id="paint82_linear_102_3" x1="198.097" y1="106.666" x2="198.097" y2="221.41" gradientUnits="userSpaceOnUse">
<stop stop-color="#D9D9D9"/>
<stop offset="1" stop-color="#D9D9D9" stop-opacity="0"/>
</linearGradient>
<linearGradient id="paint83_linear_102_3" x1="201.834" y1="117.48" x2="201.834" y2="232.225" gradientUnits="userSpaceOnUse">
<stop stop-color="#D9D9D9"/>
<stop offset="1" stop-color="#D9D9D9" stop-opacity="0"/>
</linearGradient>
<linearGradient id="paint84_linear_102_3" x1="204.81" y1="128.582" x2="204.81" y2="243.326" gradientUnits="userSpaceOnUse">
<stop stop-color="#D9D9D9"/>
<stop offset="1" stop-color="#D9D9D9" stop-opacity="0"/>
</linearGradient>
<linearGradient id="paint85_linear_102_3" x1="207.07" y1="139.888" x2="207.07" y2="254.633" gradientUnits="userSpaceOnUse">
<stop stop-color="#D9D9D9"/>
<stop offset="1" stop-color="#D9D9D9" stop-opacity="0"/>
</linearGradient>
<linearGradient id="paint86_linear_102_3" x1="208.664" y1="151.332" x2="208.664" y2="266.077" gradientUnits="userSpaceOnUse">
<stop stop-color="#D9D9D9"/>
<stop offset="1" stop-color="#D9D9D9" stop-opacity="0"/>
</linearGradient>
<linearGradient id="paint87_linear_102_3" x1="209.648" y1="162.858" x2="209.648" y2="277.603" gradientUnits="userSpaceOnUse">
<stop stop-color="#D9D9D9"/>
<stop offset="1" stop-color="#D9D9D9" stop-opacity="0"/>
</linearGradient>
<linearGradient id="paint88_linear_102_3" x1="210.08" y1="174.423" x2="210.08" y2="289.168" gradientUnits="userSpaceOnUse">
<stop stop-color="#D9D9D9"/>
<stop offset="1" stop-color="#D9D9D9" stop-opacity="0"/>
</linearGradient>
<linearGradient id="paint89_linear_102_3" x1="210.012" y1="185.996" x2="210.012" y2="300.741" gradientUnits="userSpaceOnUse">
<stop stop-color="#D9D9D9"/>
<stop offset="1" stop-color="#D9D9D9" stop-opacity="0"/>
</linearGradient>
<linearGradient id="paint90_linear_102_3" x1="209.494" y1="197.552" x2="209.494" y2="312.297" gradientUnits="userSpaceOnUse">
<stop stop-color="#D9D9D9"/>
<stop offset="1" stop-color="#D9D9D9" stop-opacity="0"/>
</linearGradient>
<linearGradient id="paint91_linear_102_3" x1="208.571" y1="209.075" x2="208.571" y2="323.819" gradientUnits="userSpaceOnUse">
<stop stop-color="#D9D9D9"/>
<stop offset="1" stop-color="#D9D9D9" stop-opacity="0"/>
</linearGradient>
<linearGradient id="paint92_linear_102_3" x1="207.283" y1="220.551" x2="207.283" y2="335.296" gradientUnits="userSpaceOnUse">
<stop stop-color="#D9D9D9"/>
<stop offset="1" stop-color="#D9D9D9" stop-opacity="0"/>
</linearGradient>
<linearGradient id="paint93_linear_102_3" x1="205.664" y1="231.974" x2="205.664" y2="346.719" gradientUnits="userSpaceOnUse">
<stop stop-color="#D9D9D9"/>
<stop offset="1" stop-color="#D9D9D9" stop-opacity="0"/>
</linearGradient>
<linearGradient id="paint94_linear_102_3" x1="203.748" y1="243.338" x2="203.748" y2="358.082" gradientUnits="userSpaceOnUse">
<stop stop-color="#D9D9D9"/>
<stop offset="1" stop-color="#D9D9D9" stop-opacity="0"/>
</linearGradient>
<linearGradient id="paint95_linear_102_3" x1="201.562" y1="254.639" x2="201.562" y2="369.383" gradientUnits="userSpaceOnUse">
<stop stop-color="#D9D9D9"/>
<stop offset="1" stop-color="#D9D9D9" stop-opacity="0"/>
</linearGradient>
<linearGradient id="paint96_linear_102_3" x1="199.128" y1="265.876" x2="199.128" y2="380.62" gradientUnits="userSpaceOnUse">
<stop stop-color="#D9D9D9"/>
<stop offset="1" stop-color="#D9D9D9" stop-opacity="0"/>
</linearGradient>
<linearGradient id="paint97_linear_102_3" x1="196.471" y1="277.048" x2="196.471" y2="391.793" gradientUnits="userSpaceOnUse">
<stop stop-color="#D9D9D9"/>
<stop offset="1" stop-color="#D9D9D9" stop-opacity="0"/>
</linearGradient>
<linearGradient id="paint98_linear_102_3" x1="193.608" y1="288.155" x2="193.608" y2="402.9" gradientUnits="userSpaceOnUse">
<stop stop-color="#D9D9D9"/>
<stop offset="1" stop-color="#D9D9D9" stop-opacity="0"/>
</linearGradient>
<linearGradient id="paint99_linear_102_3" x1="190.556" y1="299.199" x2="190.556" y2="413.943" gradientUnits="userSpaceOnUse">
<stop stop-color="#D9D9D9"/>
<stop offset="1" stop-color="#D9D9D9" stop-opacity="0"/>
</linearGradient>
<linearGradient id="paint100_linear_102_3" x1="187.33" y1="310.179" x2="187.33" y2="424.924" gradientUnits="userSpaceOnUse">
<stop stop-color="#D9D9D9"/>
<stop offset="1" stop-color="#D9D9D9" stop-opacity="0"/>
</linearGradient>
<linearGradient id="paint101_linear_102_3" x1="183.943" y1="321.098" x2="183.943" y2="435.843" gradientUnits="userSpaceOnUse">
<stop stop-color="#D9D9D9"/>
<stop offset="1" stop-color="#D9D9D9" stop-opacity="0"/>
</linearGradient>
<linearGradient id="paint102_linear_102_3" x1="180.407" y1="331.958" x2="180.407" y2="446.702" gradientUnits="userSpaceOnUse">
<stop stop-color="#D9D9D9"/>
<stop offset="1" stop-color="#D9D9D9" stop-opacity="0"/>
</linearGradient>
<linearGradient id="paint103_linear_102_3" x1="176.734" y1="342.759" x2="176.734" y2="457.504" gradientUnits="userSpaceOnUse">
<stop stop-color="#D9D9D9"/>
<stop offset="1" stop-color="#D9D9D9" stop-opacity="0"/>
</linearGradient>
<linearGradient id="paint104_linear_102_3" x1="172.932" y1="353.504" x2="172.932" y2="468.248" gradientUnits="userSpaceOnUse">
<stop stop-color="#D9D9D9"/>
<stop offset="1" stop-color="#D9D9D9" stop-opacity="0"/>
</linearGradient>
<linearGradient id="paint105_linear_102_3" x1="169.01" y1="364.194" x2="169.01" y2="478.939" gradientUnits="userSpaceOnUse">
<stop stop-color="#D9D9D9"/>
<stop offset="1" stop-color="#D9D9D9" stop-opacity="0"/>
</linearGradient>
<linearGradient id="paint106_linear_102_3" x1="164.976" y1="374.832" x2="164.976" y2="489.576" gradientUnits="userSpaceOnUse">
<stop stop-color="#D9D9D9"/>
<stop offset="1" stop-color="#D9D9D9" stop-opacity="0"/>
</linearGradient>
<linearGradient id="paint107_linear_102_3" x1="160.837" y1="385.418" x2="160.837" y2="500.162" gradientUnits="userSpaceOnUse">
<stop stop-color="#D9D9D9"/>
<stop offset="1" stop-color="#D9D9D9" stop-opacity="0"/>
</linearGradient>
<linearGradient id="paint108_linear_102_3" x1="156.599" y1="395.954" x2="156.599" y2="510.699" gradientUnits="userSpaceOnUse">
<stop stop-color="#D9D9D9"/>
<stop offset="1" stop-color="#D9D9D9" stop-opacity="0"/>
</linearGradient>
<linearGradient id="paint109_linear_102_3" x1="152.268" y1="406.443" x2="152.268" y2="521.188" gradientUnits="userSpaceOnUse">
<stop stop-color="#D9D9D9"/>
<stop offset="1" stop-color="#D9D9D9" stop-opacity="0"/>
</linearGradient>
<linearGradient id="paint110_linear_102_3" x1="245.5" y1="193" x2="245.5" y2="674" gradientUnits="userSpaceOnUse">
<stop stop-color="#5200FF" stop-opacity="0.46"/>
<stop offset="1" stop-color="#D9D9D9" stop-opacity="0"/>
</linearGradient>
</defs>
</svg>
