<svg width="546" height="540" viewBox="0 0 546 540" fill="none" xmlns="http://www.w3.org/2000/svg">
<path d="M523.358 166.93C512.833 158.431 500.801 163.212 494.357 173.731C487.055 185.631 483.079 200.188 480.608 213.896L479.536 213.365C479.212 198.489 479.857 182.444 474.272 168.418C469.654 156.622 459.664 145.147 446.022 144.83C432.489 144.405 426.153 156.622 425.078 168.311C423.682 184.57 426.045 201.676 428.516 217.721C426.582 217.721 424.541 217.828 422.607 218.039C417.88 175.112 394.681 136.221 358.912 111.358C325.939 88.1943 284.156 77.0371 243.985 82.9856C159.881 95.4196 91.4634 178.405 107.465 263.306C115.522 306.34 149.357 344.804 193.824 351.605C188.347 413.128 195.65 475.183 215.198 533.838C217.24 540 226.476 539.151 224.221 532.243C204.994 475.076 197.905 414.616 203.277 354.58C203.385 353.838 203.277 353.199 203.061 352.457C208.754 352.029 206.928 342.256 201.556 341.935C162.677 339.598 130.346 310.483 119.497 274.357C107.465 234.405 118.638 189.883 143.126 156.729C164.932 127.19 197.046 104.982 233.028 96.1621C269.548 87.1312 308.538 92.9756 341.298 111.251C381.79 133.883 409.073 173.413 413.262 219.527C413.262 219.634 413.37 219.741 413.37 219.847C404.563 222.82 396.936 228.347 391.459 235.679C379.106 251.935 378.677 273.4 386.733 291.569C390.384 299.753 395.756 307.19 402.413 313.352C389.847 333.222 379.535 354.369 371.482 376.363C363.747 397.614 354.186 423.222 362.996 445.537C371.05 465.725 391.567 474.865 412.082 466.684C428.408 460.201 439.47 444.369 447.635 428.642C458.375 455.313 466.969 482.726 473.413 510.674C474.918 517.047 484.046 516.091 482.436 509.079C475.239 478.266 465.573 448.087 453.328 418.866C453.22 418.548 453.004 418.23 452.898 417.909L453.757 416.104C464.819 391.452 470.729 364.995 471.371 338.003C479.749 338.11 488.022 335.455 494.787 330.674C506.816 321.961 512.938 307.19 511.437 292.632C511.329 292.101 511.221 291.569 511.008 291.144C517.235 285.3 521.211 276.907 522.391 268.301C523.358 260.331 523.358 252.36 522.283 244.499C521.748 239.822 520.457 235.361 517.56 232.065C525.184 223.883 530.231 213.789 532.381 202.846C534.852 190.626 533.886 175.326 523.358 166.93ZM469.224 281.264C465.249 282.645 459.88 282.963 456.763 279.776C454.724 277.65 454.079 274.57 455.153 271.912C462.564 271.806 470.404 268.512 473.951 261.925C480.503 249.812 472.446 238.23 461.705 230.152C463.102 221.121 476.527 221.015 482.112 226.221C490.598 234.191 488.664 247.475 486.193 257.569C483.833 266.917 479.32 277.65 469.224 281.264ZM434.314 178.087C434.101 169.588 435.173 155.88 446.56 155.348C458.267 154.817 464.819 166.717 467.291 176.282C470.191 187.757 469.762 200.081 469.975 211.77C462.348 212.301 455.475 216.872 453.004 224.415C449.568 222.502 446.022 221.015 442.263 219.847C440.866 219.423 439.47 218.995 438.074 218.784C435.927 205.29 434.639 191.689 434.314 178.087ZM454.616 324.191C448.277 321.216 447.743 331.63 452.898 334.074C455.796 335.455 458.805 336.412 461.919 337.154C461.381 358.087 457.3 378.807 449.998 398.36C443.122 416.635 433.777 437.037 418.634 450C403.488 462.963 379.43 463.387 371.587 442.561C367.936 432.681 369.119 421.841 371.374 411.854C373.95 401.015 377.28 390.282 381.256 379.87C389.096 359.044 398.978 338.96 410.899 320.152C419.172 325.89 428.516 330.142 438.29 332.691C445.055 334.499 445.593 324.298 440.008 322.81C430.126 320.259 420.781 315.903 412.62 309.847C412.082 309.209 411.437 308.677 410.686 308.253C407.677 305.809 404.885 303.047 402.413 300.071C392.639 288.169 388.129 271.595 392.534 256.612C396.399 243.118 408.106 231.533 422.177 228.665C430.555 226.966 439.041 228.561 446.668 231.961C453.541 235.041 461.705 239.822 465.249 246.729C469.33 254.593 462.135 260.544 454.508 261.073C453.22 259.906 451.286 259.799 449.89 260.755C442.8 259.374 436.464 254.168 431.092 249.916C425.399 245.455 422.285 254.804 427.012 258.525C432.489 262.881 438.503 267.449 445.271 269.893C443.875 280.094 451.931 291.144 462.778 292.525C467.504 293.271 472.23 292.421 476.419 290.295C477.065 291.358 477.815 292.421 478.677 293.271C483.187 297.945 490.49 299.326 496.721 298.266C498.654 297.945 500.48 297.413 502.198 296.778C500.909 319.621 476.206 334.392 454.616 324.191ZM513.368 262.881C512.509 270.956 509.608 278.82 502.735 283.812C499.834 286.045 496.399 287.426 492.745 287.958C491.673 288.065 483.079 286.895 484.154 285.832C485.013 284.982 485.442 283.919 485.334 282.752C489.952 276.801 493.177 270 495.003 262.775C495.646 260.224 496.183 257.569 496.612 254.804C497.258 253.955 497.579 252.891 497.471 251.831C497.579 246.091 501.66 234.934 509.825 238.016C513.584 239.397 512.833 245.455 513.155 248.749C513.8 253.53 513.8 258.204 513.368 262.881ZM522.07 203.481C519.385 212.515 514.23 220.697 507.14 227.18C502.735 226.752 498.438 228.454 495.432 231.64C494.141 227.604 492.102 223.99 489.418 220.804C490.919 211.984 501.768 160.237 519.277 175.643C526.472 181.806 524.433 195.407 522.07 203.481Z" fill="#BB378E" fill-opacity="0.89"/>
<path d="M211.655 235.041C213.802 222.609 212.405 209.858 207.466 198.276C206.499 195.938 204.349 193.177 201.343 193.812C198.764 194.344 197.476 197.533 198.442 199.87C202.739 209.753 204.028 220.697 202.202 231.216C201.235 236.849 210.472 241.948 211.655 235.041Z" fill="#BB378E" fill-opacity="0.89"/>
<path d="M288.345 187.225C293.501 198.382 295.864 210.71 295.218 222.927C295.005 228.985 304.457 231.322 304.779 224.097C305.316 209.857 302.416 195.725 296.185 182.869C293.179 176.6 285.336 180.956 288.345 187.225Z" fill="#BB378E" fill-opacity="0.89"/>
<path d="M276.424 253.423C261.062 265.219 241.73 269.044 223.576 260.544C219.281 258.525 217.669 262.561 218.636 266.175C218.207 266.813 217.885 267.556 217.669 268.301C214.768 282.856 219.711 297.838 230.665 307.828C241.835 317.815 257.84 320.684 271.911 315.053C286.09 309.634 295.005 296.353 295.864 281.582C296.401 272.869 290.387 242.797 276.424 253.423ZM285.123 286.152C280.505 301.345 263.749 309.952 248.282 306.551C232.815 303.151 224.113 287.319 227.014 272.551C239.904 277.118 254.08 276.907 266.863 272.019C270.944 270.532 274.811 268.405 278.355 265.961C279.646 265.219 280.826 264.262 281.901 263.199C282.222 263.092 282.438 262.882 282.76 262.775C282.976 263.199 283.189 263.624 283.51 264.049C286.735 270.849 287.378 278.82 285.123 286.152Z" fill="#BB378E" fill-opacity="0.89"/>
<path d="M93.5026 149.397C91.0342 146.742 86.9506 145.786 85.6623 150.46C84.158 155.88 83.6205 161.511 84.0499 167.037C82.2242 166.292 80.3986 165.656 78.5729 164.911C79.3265 157.579 79.7559 150.143 79.6478 142.703C79.6478 139.621 77.0685 137.073 73.9546 137.073C73.5252 137.073 73.0958 137.073 72.6664 137.18C70.0871 136.434 67.1865 137.498 67.0813 141.429L66.3277 161.193C63.9645 160.554 61.7094 159.919 59.3463 159.387C60.7426 150.992 60.4212 142.279 58.5955 133.99C58.2742 131.76 56.4456 130.058 54.1906 129.741C51.6141 127.614 47.9627 127.403 47.4253 131.653L43.4497 163.212C43.0203 166.292 45.5996 169.161 48.176 170.117C48.6054 170.438 49.0348 170.648 49.4642 170.862L93.1812 186.694C96.5112 187.971 98.6583 185.527 98.7663 182.337L99.3038 155.135C99.3038 152.055 96.7245 149.504 93.6106 149.504C93.6106 149.397 93.6106 149.397 93.5026 149.397Z" fill="#BB378E" fill-opacity="0.89"/>
<path d="M156.338 48.9853L159.452 52.3856L183.297 79.799C184.693 81.3937 187.056 82.35 189.098 81.2869C195.329 77.9934 200.698 73.4231 204.886 67.7925C207.036 64.8169 204.886 60.1425 202.094 58.6547C200.592 55.5722 196.938 53.4487 194.362 56.2106C192.428 58.334 190.494 60.3534 188.56 62.5865C188.239 62.9044 187.918 63.329 187.594 63.7537C186.305 61.9481 184.909 60.2465 183.513 58.4409C187.272 54.9337 190.602 51.0047 193.287 46.7522C195.112 43.9903 192.965 40.379 190.173 38.9953C189.957 38.5706 189.635 38.1459 189.314 37.8281C187.81 36.1265 184.372 34.8525 182.546 37.0828C179.861 40.59 176.745 43.7794 173.523 46.7522C172.772 45.9028 171.913 45.0534 171.16 44.204C173.417 41.2284 174.814 37.7212 175.135 34.0031C175.456 31.1344 173.952 28.4765 171.376 27.2025C169.229 25.6078 166.541 25.29 164.932 28.1587C162.569 32.7262 158.809 36.5512 154.191 38.9953C150.107 41.1215 152.578 47.6044 156.338 48.9853Z" fill="#BB378E" fill-opacity="0.89"/>
<path d="M205.211 20.6128C211.868 32.0906 217.453 44.0972 221.858 56.6353C222.825 59.3972 225.939 62.3728 229.056 60.674C235.178 57.2737 242.052 55.2544 249.033 54.6159C253.222 54.1912 252.9 49.1962 250.429 46.2206C250.216 43.4587 248.387 40.2722 245.595 39.7406C240.01 38.4665 234.854 40.0584 230.128 42.5025C225.509 32.1947 219.816 22.3144 213.159 13.1765C211.655 11.1572 208.217 10.5187 206.391 12.4312C205.64 13.1765 205.316 14.1328 205.316 15.1959C204.136 16.3631 203.92 18.3825 205.211 20.6128Z" fill="#BB378E" fill-opacity="0.89"/>
<path d="M263.104 29.8575C264.608 34.9594 265.68 40.59 268.043 45.3713C272.34 54.2981 285.66 53.6597 294.038 55.1475C298.548 55.89 299.086 51.0047 297.152 47.6044C297.044 46.7522 296.831 45.9028 296.401 45.0534L294.684 41.6531C294.038 40.3791 292.963 39.4228 291.567 38.8913C290.6 38.4666 289.528 38.4666 288.561 38.6775H288.345C285.444 38.1459 282.114 37.0828 279.108 37.0828L278.571 36.8719C278.141 35.1703 277.604 33.4716 276.958 31.8769C274.811 25.0762 272.556 18.2756 270.301 11.5819C269.44 8.71312 266.542 6.9075 263.533 7.54312C260.203 6.05531 256.122 7.97062 257.627 12.8559C259.666 18.5962 261.386 24.2269 263.104 29.8575Z" fill="#BB378E" fill-opacity="0.89"/>
<path d="M308.001 55.9969C308.217 58.8656 310.256 61.3097 313.156 61.8413L335.284 65.7731C338.827 66.4116 339.902 63.5428 339.256 60.5672C339.794 58.5478 339.794 56.4216 339.256 54.405C338.719 52.3856 336.572 50.0485 334.425 49.9416L320.246 49.3031C320.246 46.8591 320.138 44.415 320.138 41.971C325.402 43.5656 330.771 44.6288 336.251 44.8397C339.686 45.0535 340.869 42.2916 340.439 39.6338C343.553 37.5075 341.62 30.1781 337.001 29.6466L319.6 27.7341C319.387 24.0131 319.279 20.1881 319.063 16.47C325.51 18.0647 332.167 19.125 338.719 19.7635C342.049 20.0813 343.232 17.64 343.016 14.9822C345.595 12.645 343.553 5.84439 339.151 5.09908L315.412 0.956265C315.09 0.638452 314.661 0.424702 314.231 0.317827C313.265 1.46882e-05 312.082 1.46882e-05 311.115 0.317827C307.787 0.317827 307.142 4.03877 308.43 7.01439C307.355 23.3775 307.25 39.7406 308.001 55.9969Z" fill="#BB378E" fill-opacity="0.89"/>
<path d="M358.699 75.7603C359.987 75.2316 360.954 74.0616 361.062 72.6807C362.243 67.5788 363.531 62.5866 364.927 57.5916C365.573 66.9432 366.11 76.2919 366.539 85.7503C366.756 90.2138 372.341 93.4003 374.917 90.2138C376.635 91.17 378.568 90.9563 379.643 88.3013L402.092 33.0469C403.81 28.6903 398.333 23.0569 395.003 24.8653C392.964 22.4213 389.847 21.2513 387.913 24.9694C384.37 31.77 381.256 38.8913 378.677 46.1166C377.496 36.9788 375.671 27.945 373.308 19.021C372.446 15.6207 366.326 12.0066 364.498 16.6838C357.624 34.11 352.577 52.2788 349.676 70.7682C348.817 75.9741 356.765 80.7553 358.699 75.7603Z" fill="#BB378E" fill-opacity="0.89"/>
<path d="M68.5828 117.627C77.3928 118.901 86.1998 119.964 95.0069 120.814C98.2289 127.721 101.988 134.415 105.964 140.898C106.285 141.323 106.607 141.747 106.931 142.172C108.219 144.405 110.045 146.104 112.729 146.318C117.672 146.635 118.53 140.791 116.489 137.391C115.846 136.328 114.984 135.478 113.912 134.84C113.588 133.99 112.837 132.823 112.729 132.292C111.978 130.272 111.225 128.253 110.582 126.34C110.045 124.853 109.507 123.365 108.97 121.984C111.012 122.091 112.945 122.195 114.984 122.302C119.173 122.515 126.479 121.345 130.13 123.683C134.106 126.233 136.682 123.258 136.79 119.964C139.904 118.052 137.97 110.613 133.352 109.763C123.257 107.958 113.051 106.577 102.742 105.621L96.2952 88.4053C94.7908 84.3694 90.0673 83.4132 87.9175 85.2188C85.1249 85.005 82.5485 86.9175 83.7286 90.9563C85.0168 95.5266 86.4131 99.9872 88.0255 104.344C81.1522 103.919 74.1708 103.708 67.2946 103.708C63.2138 103.708 62.2469 107.64 63.4271 110.72C63.5352 113.588 65.4689 117.096 68.5828 117.627Z" fill="#BB378E" fill-opacity="0.89"/>
<path d="M407.998 57.4847L410.686 58.8656C409.289 61.7344 407.14 64.1784 405.638 66.9431C403.704 70.9791 402.2 75.1247 401.125 79.3744C398.332 89.0437 394.036 97.3322 388.88 106.045C386.946 109.339 389.955 113.588 393.285 114.227C395.432 116.353 398.762 117.203 400.482 113.909C409.289 98.0747 417.238 81.8184 424.111 65.1347C427.441 66.6225 430.771 68.1103 434.101 69.5981C437.431 71.0859 439.041 69.1734 439.257 66.6225C440.437 65.9869 441.296 64.8169 441.62 63.5428C442.263 60.5672 440.224 58.0162 437.753 56.6353L408.323 40.9078C405.851 39.6337 403.275 41.5462 402.737 43.9903C402.737 44.2041 402.737 44.5219 402.629 44.7356C399.407 49.5169 403.488 55.1475 407.998 57.4847Z" fill="#BB378E" fill-opacity="0.89"/>
<path d="M139.153 101.05C147.531 105.514 162.139 105.938 166.541 95.6306C170.73 85.9613 164.716 73.9547 156.446 68.535C153.437 66.6225 151.29 67.7925 150.323 69.9188C147.315 70.875 146.564 76.8234 150.107 79.5881C152.471 81.3938 155.909 84.1556 156.659 87.0244C156.554 88.3013 155.801 89.4684 154.726 90.2138C150.107 93.6141 144.417 89.8931 140.871 86.9175C137.328 83.9447 132.815 79.6922 131.634 74.9109C130.451 70.1297 133.998 64.1784 139.475 64.9238C146.027 65.88 144.417 55.4653 138.937 54.405C138.078 53.4488 137.003 52.8103 135.715 52.5966C135.178 52.1719 134.535 51.9609 133.889 51.8541C121.86 49.5169 117.347 65.7731 118.852 74.7C120.677 85.4297 129.593 95.9513 139.153 101.05Z" fill="#BB378E" fill-opacity="0.89"/>
<path d="M93.932 215.702C86.9506 211.666 79.0023 207.734 71.054 209.008C69.0151 200.295 64.6101 188.927 56.8751 191.582C52.6862 193.07 48.2841 199.232 45.7048 202.525C43.1284 205.926 41.0866 209.857 39.7984 213.896C29.3789 213.151 19.2836 217.507 12.6235 225.478C11.0111 227.815 11.2272 230.898 13.269 232.917C17.5631 237.485 23.2563 240.353 29.4869 241.206C27.9826 247.047 27.3399 253.105 27.6612 259.057C27.7693 261.501 30.0244 264.901 32.817 264.901C42.1615 265.112 51.0767 260.969 56.8751 253.744C62.9977 259.799 70.946 263.731 79.5398 264.794C81.2574 265.005 82.8698 264.156 83.5153 262.668C86.5212 254.486 86.6292 245.562 83.7286 237.378C89.1005 233.66 93.3945 228.772 96.2952 223.034C97.3701 220.697 96.1899 216.979 93.932 215.702ZM74.9215 229.835C72.3422 231.216 72.5584 234.616 73.7385 236.849C76.4259 242.162 77.0686 248.11 75.6723 253.848C68.907 252.256 62.8925 248.11 59.025 242.373C57.6287 240.353 54.9442 239.929 52.9024 241.31C52.3649 241.63 51.9355 242.162 51.6142 242.691C48.7135 248.217 43.5578 252.36 37.3272 253.955C37.7566 248.642 39.1528 243.543 41.4108 238.762C42.9123 235.361 39.7984 229.41 35.5015 230.366C31.742 231.429 27.7693 231.109 24.2232 229.728C29.8083 225.371 37.1139 223.672 44.2033 225.053C47.2092 225.585 48.4974 223.566 48.3922 221.122C49.3591 217.19 51.0767 213.472 53.5479 210.282C55.2655 207.838 57.1993 205.501 59.3463 203.377C59.8838 204.438 60.4212 205.608 60.8507 206.778C61.9256 209.647 62.6763 212.515 62.9977 215.491C63.4271 218.677 66.7571 223.034 70.5166 220.908C75.1348 218.36 80.0772 219.634 84.6955 221.76C82.011 224.947 78.789 227.815 74.9215 229.835Z" fill="#BB378E" fill-opacity="0.89"/>
<path d="M437.002 99.4556C434.101 103.387 432.059 107.851 435.927 112.207C439.365 116.139 445.163 116.353 450.211 115.501C452.037 120.921 454.937 127.297 460.093 127.721C466.108 128.253 469.975 120.814 471.587 115.076C478.782 115.183 489.523 114.545 488.556 106.47C487.805 100.308 481.361 95.2059 475.347 91.9125C476.206 88.3012 476.527 84.6871 476.419 81.0731C476.314 78.629 474.056 75.1246 471.263 75.2315C464.498 75.2315 457.946 77.355 452.682 81.3937C449.568 80.8621 446.452 80.7553 443.338 81.18C439.9 81.6046 434.852 82.0293 432.167 84.4734C427.012 88.7259 431.846 94.9949 437.002 99.4556ZM445.809 91.5946C448.064 91.17 450.427 91.0631 452.682 91.4878C454.295 92.5509 456.442 92.444 457.946 91.0631C460.417 88.9368 463.315 87.3421 466.432 86.3859C466.108 87.9806 465.678 89.5753 465.035 91.0631C463.852 94.2496 465.357 97.7568 468.471 99.1378C471.587 100.308 474.593 102.007 477.281 104.026C473.951 104.344 470.621 104.344 467.182 104.24C465.035 104.026 463.102 105.514 462.886 107.64C462.672 109.446 461.813 113.271 460.093 115.501C459.985 115.183 459.88 114.969 459.772 114.652C458.913 112.632 458.159 110.509 457.622 108.382C456.979 106.152 454.295 103.177 451.502 103.919C450.427 104.24 449.352 104.557 448.064 104.768C447.635 104.875 447.205 104.875 446.776 104.875C447.313 104.133 447.848 103.387 448.064 103.07C450.64 99.9871 448.385 95.5265 445.271 94.0387C444.088 93.5071 443.121 92.8687 442.157 92.0193C443.659 91.8056 445.055 91.6987 445.809 91.5946Z" fill="#BB378E" fill-opacity="0.89"/>
</svg>
