<svg xmlns="http://www.w3.org/2000/svg" xmlns:xlink="http://www.w3.org/1999/xlink" width="763" zoomAndPan="magnify" viewBox="0 0 572.25 744.749983" height="993" preserveAspectRatio="xMidYMid meet" version="1.0"><defs><clipPath id="e3e082089f"><path d="M 0 0.363281 L 571.5 0.363281 L 571.5 744.136719 L 0 744.136719 Z M 0 0.363281 " clip-rule="nonzero"/></clipPath><clipPath id="18d112eacc"><path d="M 35.203125 0.363281 L 536.007812 0.363281 C 555.449219 0.363281 571.210938 16.125 571.210938 35.566406 L 571.210938 708.84375 C 571.210938 728.285156 555.449219 744.046875 536.007812 744.046875 L 35.203125 744.046875 C 15.761719 744.046875 0 728.285156 0 708.84375 L 0 35.566406 C 0 16.125 15.761719 0.363281 35.203125 0.363281 " clip-rule="nonzero"/></clipPath><clipPath id="cb2cd05dd7"><path d="M 41.40625 132 L 529.765625 132 L 529.765625 613 L 41.40625 613 Z M 41.40625 132 " clip-rule="nonzero"/></clipPath></defs><g clip-path="url(#e3e082089f)"><g clip-path="url(#18d112eacc)"><path fill="#ffffff" d="M 0 0.363281 L 572.296875 0.363281 L 572.296875 744.699219 L 0 744.699219 Z M 0 0.363281 " fill-opacity="1" fill-rule="nonzero"/></g></g><g clip-path="url(#cb2cd05dd7)"><path fill="#000000" d="M 45.121094 413.320312 C 43.246094 413.445312 41.628906 412.027344 41.503906 410.152344 C 41.378906 408.277344 42.796875 406.65625 44.671875 406.535156 C 65.324219 405.117188 86.839844 403.003906 108.957031 397.871094 C 130.996094 392.753906 153.691406 384.621094 176.824219 371.152344 C 181.203125 368.605469 185.226562 365.65625 188.960938 362.402344 C 192.722656 359.117188 196.214844 355.503906 199.503906 351.640625 C 209.335938 340.089844 217.308594 326.320312 225.160156 312.769531 L 225.28125 312.566406 C 230.175781 304.105469 235.980469 296.867188 242.417969 290.382812 C 248.808594 283.945312 255.800781 278.273438 263.152344 272.882812 C 269.183594 268.464844 275.300781 264.332031 281.523438 260.132812 L 284.625 258.039062 C 306.550781 243.203125 326.34375 201.605469 342.160156 168.375 C 343.753906 165.027344 345.300781 161.777344 347.550781 157.117188 C 354.265625 143.203125 361.707031 135.703125 369.050781 133.152344 C 374.53125 131.253906 379.847656 132.03125 384.738281 134.9375 C 389.285156 137.636719 393.40625 142.203125 396.863281 148.152344 C 406.320312 164.402344 411.160156 191.6875 406.019531 219.027344 C 403.085938 234.613281 393.046875 259.808594 379.652344 282.554688 C 375.585938 289.460938 371.207031 296.152344 366.609375 302.308594 C 381.769531 301.492188 399.695312 300.695312 418.085938 300.699219 C 439.058594 300.707031 460.503906 301.773438 478.878906 305.078125 C 488.359375 306.78125 500.671875 312.660156 510.246094 320.710938 C 518.402344 327.566406 524.679688 336.09375 525.859375 345.183594 C 527.222656 355.695312 521.289062 364.5625 512.457031 372.175781 C 509.464844 374.753906 506.148438 377.183594 502.691406 379.476562 C 509.566406 383.878906 516.457031 389.707031 521.519531 396.1875 C 526.636719 402.742188 529.9375 410.019531 529.65625 417.324219 C 529.117188 431.28125 520.039062 441.21875 507.695312 448.285156 C 510.582031 451.585938 513.050781 455.109375 514.84375 458.757812 C 516.953125 463.050781 518.121094 467.511719 517.949219 471.980469 C 517.558594 482.152344 512.625 490.1875 505.199219 496.535156 C 504.046875 497.710938 503.078125 498.960938 502.269531 500.238281 C 500.867188 502.441406 499.964844 504.722656 499.402344 506.894531 C 497.546875 514.050781 499.207031 518.089844 500.792969 521.953125 C 502.46875 526.027344 504.082031 529.953125 502.992188 536.1875 C 501.210938 546.367188 494.417969 553.304688 485.347656 558 C 412.800781 597.703125 347.347656 589.824219 284.070312 582.207031 C 276.425781 581.285156 268.816406 580.371094 261.871094 579.609375 C 250.355469 578.34375 239.566406 575.339844 229.59375 570.863281 C 204.195312 563.691406 176.402344 567.753906 149.050781 576.644531 C 121.292969 585.671875 93.945312 599.679688 69.945312 612.042969 C 68.277344 612.902344 66.230469 612.246094 65.371094 610.578125 C 64.511719 608.910156 65.167969 606.859375 66.835938 606 C 91.074219 593.511719 118.699219 579.363281 146.953125 570.179688 C 168.664062 563.121094 190.722656 559.003906 211.886719 560.800781 C 211.507812 560.535156 211.132812 560.269531 210.761719 560.003906 C 195.191406 548.851562 182.355469 533.652344 172.742188 515.863281 C 171.855469 514.210938 172.472656 512.148438 174.125 511.257812 C 175.777344 510.371094 177.839844 510.988281 178.730469 512.644531 C 187.84375 529.519531 200.003906 543.917969 214.722656 554.464844 C 220.1875 558.378906 226.011719 561.765625 232.15625 564.546875 L 232.171875 564.554688 C 241.574219 568.804688 251.742188 571.652344 262.589844 572.839844 C 270.425781 573.699219 277.636719 574.566406 284.875 575.441406 C 337.496094 581.773438 391.648438 588.296875 449.828125 566.78125 C 441.003906 567.53125 432.84375 567.527344 427.054688 567.351562 C 418.273438 567.085938 408.921875 566.347656 400.242188 565.191406 C 393.898438 564.347656 387.902344 563.28125 382.726562 562.007812 C 382.09375 564.578125 381.339844 567.011719 380.460938 569.3125 C 379.523438 571.757812 378.429688 574.105469 377.175781 576.359375 C 376.605469 577.382812 375.316406 577.753906 374.289062 577.183594 C 373.269531 576.613281 372.898438 575.324219 373.46875 574.296875 C 374.601562 572.261719 375.605469 570.09375 376.484375 567.796875 C 377.335938 565.574219 378.050781 563.273438 378.628906 560.90625 L 378.507812 560.871094 C 370.976562 558.636719 363.511719 555.59375 357.867188 551.160156 C 351.824219 546.402344 347.871094 540.140625 347.988281 531.722656 C 348.085938 525.226562 350.859375 520.445312 355.394531 516.980469 C 356.75 515.945312 358.253906 515.046875 359.882812 514.253906 C 357.8125 513.386719 355.832031 512.410156 353.976562 511.304688 C 346.40625 506.800781 340.976562 500.269531 339.835938 490.699219 C 338.359375 478.289062 345.117188 470.488281 355.855469 465.574219 C 361.011719 463.214844 367.105469 461.5625 373.59375 460.398438 C 370.792969 459.34375 368.128906 458.113281 365.683594 456.65625 C 358.113281 452.152344 352.683594 445.621094 351.542969 436.050781 C 350.066406 423.640625 356.824219 415.839844 367.5625 410.925781 C 370.347656 409.652344 373.410156 408.585938 376.65625 407.6875 C 372.59375 406.4375 368.738281 404.765625 365.292969 402.636719 C 358.214844 398.257812 352.867188 391.992188 350.890625 383.511719 C 347.558594 369.160156 356.199219 359.980469 369.617188 353.878906 C 373.785156 351.984375 378.429688 350.398438 383.304688 349.050781 C 382.742188 345.910156 381.953125 342.648438 380.933594 339.277344 C 379.65625 335.0625 378.011719 330.644531 376.003906 326.023438 C 375.539062 324.949219 376.027344 323.695312 377.101562 323.230469 C 378.179688 322.761719 379.429688 323.25 379.894531 324.328125 C 381.957031 329.070312 383.65625 333.648438 384.988281 338.042969 C 386.03125 341.480469 386.839844 344.792969 387.429688 347.980469 C 395.773438 345.941406 404.566406 344.523438 412.640625 343.402344 C 414.304688 343.171875 415.832031 342.972656 417.242188 342.808594 C 416.683594 340.027344 415.964844 337.1875 415.082031 334.277344 C 413.917969 330.425781 412.453125 326.4375 410.695312 322.300781 C 410.238281 321.222656 410.738281 319.972656 411.820312 319.515625 C 412.898438 319.054688 414.144531 319.558594 414.605469 320.636719 C 416.402344 324.871094 417.914062 329.007812 419.140625 333.042969 C 420.101562 336.21875 420.878906 339.3125 421.472656 342.328125 C 421.996094 342.269531 422.5 342.214844 422.984375 342.164062 C 433.269531 341.078125 433.667969 341.035156 446.179688 329.855469 C 447.574219 328.605469 449.722656 328.726562 450.96875 330.125 C 452.21875 331.523438 452.097656 333.667969 450.699219 334.914062 C 436.542969 347.5625 436.0625 347.617188 423.671875 348.925781 C 421.03125 349.203125 417.78125 349.550781 413.574219 350.132812 C 399.828125 352.042969 383.984375 354.816406 372.414062 360.078125 C 361.945312 364.835938 355.132812 371.691406 357.519531 381.960938 C 359.042969 388.503906 363.261719 393.390625 368.863281 396.855469 C 375.851562 401.175781 384.972656 403.335938 393.871094 403.757812 C 396.148438 403.867188 398.609375 403.867188 401.199219 403.769531 C 402.007812 403.707031 402.820312 403.644531 403.625 403.589844 C 403.859375 403.578125 404.082031 403.585938 404.304688 403.613281 C 414.316406 402.980469 426.023438 401.082031 437.40625 398.558594 C 455.371094 394.574219 472.410156 389.070312 480.664062 384.535156 C 489.796875 379.515625 500.28125 373.703125 508.023438 367.023438 C 515.25 360.792969 520.144531 353.792969 519.136719 346.019531 C 518.203125 338.816406 512.863281 331.75 505.890625 325.886719 C 497.199219 318.574219 486.136719 313.261719 477.6875 311.742188 C 459.761719 308.519531 438.714844 307.480469 418.09375 307.472656 C 397.558594 307.464844 377.308594 308.496094 360.988281 309.410156 C 354.957031 316.601562 348.644531 322.714844 342.261719 327.078125 C 340.714844 328.132812 338.601562 327.734375 337.542969 326.183594 C 336.484375 324.632812 336.882812 322.519531 338.433594 321.460938 C 350.984375 312.890625 363.414062 296.757812 373.804688 279.105469 C 386.816406 257.007812 396.539062 232.695312 399.347656 217.757812 C 404.179688 192.046875 399.742188 166.582031 390.988281 151.539062 C 388.113281 146.589844 384.808594 142.867188 381.28125 140.769531 C 378.101562 138.878906 374.703125 138.355469 371.261719 139.546875 C 365.570312 141.519531 359.527344 147.910156 353.667969 160.050781 C 352.445312 162.585938 350.40625 166.871094 348.308594 171.28125 C 342.042969 184.449219 335.160156 198.90625 327.71875 212.59375 L 340.28125 217.972656 C 341.359375 218.429688 341.863281 219.679688 341.402344 220.757812 C 340.945312 221.839844 339.699219 222.339844 338.617188 221.882812 L 325.660156 216.339844 C 324.183594 218.980469 322.691406 221.585938 321.175781 224.140625 L 334 229.628906 C 335.082031 230.085938 335.582031 231.335938 335.125 232.414062 C 334.664062 233.496094 333.417969 234 332.339844 233.539062 L 318.957031 227.8125 C 309.539062 243.160156 299.332031 256.285156 288.429688 263.660156 L 285.328125 265.757812 C 279.074219 269.980469 272.925781 274.132812 267.167969 278.347656 C 260.0625 283.558594 253.324219 289.015625 247.230469 295.152344 C 241.1875 301.242188 235.742188 308.027344 231.15625 315.949219 L 231.039062 316.152344 C 223.039062 329.96875 214.90625 344.003906 204.664062 356.035156 C 201.191406 360.117188 197.472656 363.964844 193.429688 367.492188 C 189.359375 371.042969 184.980469 374.246094 180.226562 377.015625 C 156.445312 390.863281 133.121094 399.222656 110.46875 404.480469 C 87.898438 409.71875 66.058594 411.871094 45.117188 413.300781 Z M 330.566406 367.691406 C 330.617188 366.519531 331.605469 365.613281 332.777344 365.664062 C 333.949219 365.714844 334.855469 366.703125 334.804688 367.878906 C 333.839844 389.097656 329.800781 408.480469 323.003906 425.394531 C 316.144531 442.472656 306.472656 457.046875 294.3125 468.472656 C 293.457031 469.277344 292.113281 469.234375 291.3125 468.378906 C 290.507812 467.523438 290.550781 466.179688 291.402344 465.378906 C 303.113281 454.375 312.433594 440.316406 319.0625 423.816406 C 325.6875 407.335938 329.621094 388.425781 330.566406 367.695312 Z M 219.667969 370.191406 C 218.90625 371.082031 217.566406 371.183594 216.675781 370.421875 C 215.785156 369.660156 215.683594 368.320312 216.445312 367.425781 C 226.355469 355.789062 234.359375 341.96875 242.234375 328.367188 L 242.351562 328.164062 C 247.191406 319.808594 252.929688 312.65625 259.289062 306.242188 C 265.625 299.863281 272.570312 294.230469 279.875 288.875 C 280.820312 288.179688 282.148438 288.386719 282.84375 289.332031 C 283.535156 290.277344 283.332031 291.605469 282.386719 292.300781 C 275.234375 297.546875 268.449219 303.042969 262.300781 309.238281 C 256.179688 315.402344 250.667969 322.273438 246.023438 330.296875 L 245.90625 330.5 C 237.933594 344.261719 229.835938 358.246094 219.667969 370.191406 Z M 147 551.742188 C 148.082031 551.296875 149.324219 551.8125 149.769531 552.898438 C 150.214844 553.980469 149.695312 555.222656 148.613281 555.667969 L 91.867188 579.105469 C 90.78125 579.550781 89.542969 579.035156 89.097656 577.949219 C 88.652344 576.867188 89.167969 575.625 90.253906 575.179688 Z M 492.996094 504.570312 C 490.230469 506 487.335938 507.296875 484.359375 508.476562 C 467.21875 515.277344 447.425781 518.183594 435.8125 519.375 C 425.710938 520.417969 414.847656 521.003906 404.65625 521 C 395.136719 521 386.210938 520.480469 379.039062 519.339844 C 376.328125 518.910156 373.605469 518.394531 370.933594 517.761719 C 366.347656 518.730469 362.375 520.207031 359.515625 522.394531 C 356.605469 524.613281 354.828125 527.667969 354.765625 531.816406 C 354.683594 537.777344 357.601562 542.308594 362.066406 545.820312 C 366.9375 549.648438 373.613281 552.339844 380.417969 554.363281 C 386.105469 556.046875 393.324219 557.433594 401.109375 558.46875 C 409.578125 559.59375 418.6875 560.316406 427.230469 560.578125 C 436.925781 560.871094 453.503906 560.675781 468.183594 557.042969 C 482.054688 553.613281 494.171875 547.117188 496.289062 535.023438 C 497.046875 530.695312 495.804688 527.675781 494.515625 524.542969 C 492.503906 519.65625 490.402344 514.546875 492.824219 505.199219 C 492.878906 504.988281 492.9375 504.78125 492.996094 504.570312 Z M 371.039062 510.808594 C 371.234375 510.773438 371.433594 510.738281 371.632812 510.699219 C 372.761719 510.503906 373.855469 510.886719 374.609375 511.632812 C 376.421875 512.015625 378.261719 512.347656 380.101562 512.640625 C 386.925781 513.722656 395.484375 514.214844 404.652344 514.214844 C 414.558594 514.214844 425.183594 513.640625 435.121094 512.617188 C 446.367188 511.460938 465.488281 508.664062 481.855469 502.171875 C 488.96875 499.347656 495.5625 495.828125 500.6875 491.445312 C 501.25 490.898438 501.839844 490.359375 502.464844 489.835938 C 507.59375 484.894531 510.882812 478.933594 511.164062 471.746094 C 511.289062 468.453125 510.382812 465.070312 508.75 461.746094 C 507.019531 458.222656 504.472656 454.761719 501.457031 451.515625 C 499.699219 452.332031 497.898438 453.101562 496.070312 453.828125 C 478.925781 460.628906 459.136719 463.535156 447.523438 464.730469 C 437.421875 465.769531 426.558594 466.355469 416.367188 466.351562 C 407.722656 466.351562 399.5625 465.921875 392.765625 464.992188 C 392.636719 465.015625 392.5 465.035156 392.363281 465.046875 C 380.078125 465.890625 367.605469 467.675781 358.671875 471.765625 C 350.625 475.445312 345.535156 481.109375 346.585938 489.917969 C 347.441406 497.082031 351.605469 502.027344 357.429688 505.492188 C 361.359375 507.835938 366.054688 509.539062 371.042969 510.808594 Z M 496.261719 383.519531 C 492.09375 386.015625 487.882812 388.339844 483.917969 390.515625 C 475.167969 395.320312 457.421875 401.089844 438.855469 405.203125 C 426.109375 408.027344 412.914062 410.089844 401.902344 410.554688 C 390.332031 411.460938 378.785156 413.269531 370.375 417.113281 C 362.328125 420.792969 357.242188 426.457031 358.292969 435.265625 C 359.148438 442.429688 363.3125 447.375 369.136719 450.839844 C 375.390625 454.566406 383.582031 456.679688 391.808594 457.988281 C 398.632812 459.070312 407.195312 459.5625 416.363281 459.5625 C 426.269531 459.5625 436.890625 458.992188 446.828125 457.96875 C 458.078125 456.808594 477.199219 454.011719 493.566406 447.519531 C 509.195312 441.316406 522.304688 431.753906 522.871094 417.097656 C 523.085938 411.550781 520.371094 405.757812 516.171875 400.378906 C 510.929688 393.664062 503.445312 387.6875 496.269531 383.519531 Z M 496.261719 383.519531 " fill-opacity="1" fill-rule="nonzero"/></g></svg>